<?xml version="1.0" encoding="UTF-8"?>
<svg width="56px" height="57px" viewBox="0 0 56 57" version="1.1" xmlns="http://www.w3.org/2000/svg" xmlns:xlink="http://www.w3.org/1999/xlink">
    <!-- Generator: Sketch 60.1 (88133) - https://sketch.com -->
    <title>历史公告</title>
    <desc>Created with Sketch.</desc>
    <g id="用户端" stroke="none" stroke-width="1" fill="none" fill-rule="evenodd" opacity="0.85">
        <g id="calendar备份" transform="translate(0.000000, 1.000000)">
            <rect id="矩形" fill="#000000" fill-rule="nonzero" opacity="0" x="0" y="0" width="56" height="56"></rect>
            <path d="M48.125,10.0625 L38.9375,10.0625 L38.9375,6.5625 C38.9375,6.321875 38.740625,6.125 38.5,6.125 L35.4375,6.125 C35.196875,6.125 35,6.321875 35,6.5625 L35,10.0625 L21,10.0625 L21,6.5625 C21,6.321875 20.803125,6.125 20.5625,6.125 L17.5,6.125 C17.259375,6.125 17.0625,6.321875 17.0625,6.5625 L17.0625,10.0625 L7.875,10.0625 C6.90703125,10.0625 6.125,10.8445312 6.125,11.8125 L6.125,48.125 C6.125,49.0929688 6.90703125,49.875 7.875,49.875 L48.125,49.875 C49.0929688,49.875 49.875,49.0929688 49.875,48.125 L49.875,11.8125 C49.875,10.8445312 49.0929688,10.0625 48.125,10.0625 Z M45.9375,45.9375 L10.0625,45.9375 L10.0625,25.15625 L45.9375,25.15625 L45.9375,45.9375 Z M10.0625,21.4375 L10.0625,14 L17.0625,14 L17.0625,16.625 C17.0625,16.865625 17.259375,17.0625 17.5,17.0625 L20.5625,17.0625 C20.803125,17.0625 21,16.865625 21,16.625 L21,14 L35,14 L35,16.625 C35,16.865625 35.196875,17.0625 35.4375,17.0625 L38.5,17.0625 C38.740625,17.0625 38.9375,16.865625 38.9375,16.625 L38.9375,14 L45.9375,14 L45.9375,21.4375 L10.0625,21.4375 Z" id="形状" fill="#000000" fill-rule="nonzero"></path>
            <rect id="矩形" fill="#407EF7" x="19" y="29" width="18" height="13"></rect>
        </g>
    </g>
</svg>