<?xml version="1.0" encoding="UTF-8"?>
<svg width="56px" height="57px" viewBox="0 0 56 57" version="1.1" xmlns="http://www.w3.org/2000/svg" xmlns:xlink="http://www.w3.org/1999/xlink">
    <!-- Generator: Sketch 60.1 (88133) - https://sketch.com -->
    <title>我的-2</title>
    <desc>Created with Sketch.</desc>
    <g id="用户端" stroke="none" stroke-width="1" fill="none" fill-rule="evenodd">
        <g id="user备份" transform="translate(9.000000, 9.000000)">
            <rect id="矩形" fill="#000000" fill-rule="nonzero" opacity="0" x="0" y="0" width="38" height="38"></rect>
            <path d="M31.8583984,28.3367187 C31.1570313,26.6742188 30.1476563,25.1824219 28.8673828,23.9021484 C27.5871094,22.621875 26.0953125,21.6162109 24.4328125,20.9111328 C24.4179688,20.9037109 24.403125,20.9 24.3882812,20.8925781 C26.7001953,19.2226562 28.203125,16.5025391 28.203125,13.4335938 C28.203125,8.34960938 24.0839844,4.23046875 19,4.23046875 C13.9160156,4.23046875 9.796875,8.34960938 9.796875,13.4335938 C9.796875,16.5025391 11.2998047,19.2226562 13.6117188,20.8962891 C13.596875,20.9037109 13.5820312,20.9074219 13.5671875,20.9148438 C11.9046875,21.6162109 10.4128906,22.621875 9.13261719,23.9058594 C7.85234375,25.1861328 6.84667969,26.6779297 6.14160156,28.3404297 C5.45136719,29.9658203 5.08398437,31.6914062 5.04679952,33.4652344 C5.04316406,33.6322266 5.17675781,33.7695312 5.34375,33.7695312 L7.5703125,33.7695312 C7.73359375,33.7695312 7.86347656,33.6396484 7.8671875,33.4800781 C7.94140625,30.6152344 9.09179687,27.9322266 11.1253906,25.8986328 C13.2294922,23.7945313 16.0238281,22.6367188 19,22.6367188 C21.9761719,22.6367188 24.7705078,23.7945313 26.8746094,25.8986328 C28.9082031,27.9322266 30.0585938,30.6152344 30.1328125,33.4800781 C30.1365234,33.6433594 30.2664063,33.7695312 30.4296875,33.7695312 L32.65625,33.7695312 C32.8232422,33.7695312 32.9568359,33.6322266 32.9532005,33.4652344 C32.9160156,31.6914062 32.5486328,29.9658203 31.8583984,28.3367187 Z M19,19.8164062 C17.2966797,19.8164062 15.6935547,19.1521484 14.4875,17.9460938 C13.2814453,16.7400391 12.6171875,15.1369141 12.6171875,13.4335938 C12.6171875,11.7302734 13.2814453,10.1271484 14.4875,8.92109375 C15.6935547,7.71503906 17.2966797,7.05078125 19,7.05078125 C20.7033203,7.05078125 22.3064453,7.71503906 23.5125,8.92109375 C24.7185547,10.1271484 25.3828125,11.7302734 25.3828125,13.4335938 C25.3828125,15.1369141 24.7185547,16.7400391 23.5125,17.9460938 C22.3064453,19.1521484 20.7033203,19.8164062 19,19.8164062 Z" id="形状" fill="#407EF7" fill-rule="nonzero"></path>
            <circle id="椭圆形" fill="#407EF7" cx="19.5" cy="13.5" r="7.5"></circle>
        </g>
    </g>
</svg>