<?xml version="1.0" encoding="UTF-8"?>
<svg width="56px" height="57px" viewBox="0 0 56 57" version="1.1" xmlns="http://www.w3.org/2000/svg" xmlns:xlink="http://www.w3.org/1999/xlink">
    <!-- Generator: Sketch 60.1 (88133) - https://sketch.com -->
    <title>首页-2</title>
    <desc>Created with Sketch.</desc>
    <g id="用户端" stroke="none" stroke-width="1" fill="none" fill-rule="evenodd">
        <g id="home备份" transform="translate(9.000000, 9.000000)">
            <rect id="矩形" fill="#000000" fill-rule="nonzero" opacity="0" x="0" y="0" width="38" height="38"></rect>
            <path d="M35.1240234,18.7402344 L20.7849609,4.40859375 L19.8238281,3.44746094 C19.3673828,2.99472656 18.6326172,2.99472656 18.1761719,3.44746094 L2.87597656,18.7402344 C2.41953125,19.1966797 2.17460938,19.8015625 2.17827876,20.4472656 C2.19316406,21.7535156 3.28046875,22.7962891 4.58671875,22.7962891 L6.16386719,22.7962891 L6.16386719,34.8828125 L31.8361328,34.8828125 L31.8361328,22.7962891 L33.4466797,22.7962891 C34.08125,22.7962891 34.6787109,22.5476562 35.1277344,22.0986328 C35.5767578,21.6496094 35.8216797,21.0521484 35.8216797,20.4175781 C35.8216797,19.7867188 35.5730469,19.1892578 35.1240234,18.7402344 Z M21.078125,32.2109375 L16.921875,32.2109375 L16.921875,24.640625 L21.078125,24.640625 L21.078125,32.2109375 Z M29.1642578,20.1244141 L29.1642578,32.2109375 L23.453125,32.2109375 L23.453125,23.75 C23.453125,22.9298828 22.7888672,22.265625 21.96875,22.265625 L16.03125,22.265625 C15.2111328,22.265625 14.546875,22.9298828 14.546875,23.75 L14.546875,32.2109375 L8.83574219,32.2109375 L8.83574219,20.1244141 L5.27324219,20.1244141 L19.0037109,6.40507812 L19.8609375,7.26230469 L32.7304688,20.1244141 L29.1642578,20.1244141 Z" id="形状" fill="#407EF7" fill-rule="nonzero"></path>
            <polygon id="路径-2" fill="#407EF7" points="19.0018555 5.5 3.85147824 20.2883672 7.17934856 21.1773428 7.74899189 33.3670112 15.3347714 33.3670112 15.3347714 23.6026954 21.8498485 23.6026954 22.7130504 33.3670112 30.0533241 33.3670112 30.6976676 21.1773428 34.8778187 21.1773428"></polygon>
        </g>
    </g>
</svg>